<svg width="630" height="425" viewBox="0 0 630 425" fill="none" xmlns="http://www.w3.org/2000/svg">
<g clip-path="url(#clip0_735_103)">
<mask id="mask0_735_103" style="mask-type:luminance" maskUnits="userSpaceOnUse" x="-1" y="0" width="631" height="426">
<path d="M629.74 0H-1V425.128H629.74V0Z" fill="white"/>
</mask>
<g mask="url(#mask0_735_103)">
<path d="M294.943 0.750446C221.618 8.47753 158.638 52.1613 126.083 118.099C120.505 129.432 114.014 146.225 111.783 154.983C110.769 159.31 110.059 160.443 108.436 160.443C107.219 160.443 91.7022 161.164 73.8528 161.989C56.0033 162.813 41.0949 163.534 40.7906 163.534C40.385 163.534 39.8779 164.358 39.675 165.389C39.1679 167.243 40.4864 167.346 65.1309 168.067C79.4308 168.48 203.465 168.686 340.885 168.686L590.576 168.583V166.212C590.576 163.431 591.083 163.431 544.431 161.37C531.146 160.855 520.091 160.237 520.091 160.135C519.99 160.032 518.164 154.158 515.831 147.05C493.62 77.8152 436.827 24.3438 366.544 6.51999C345.044 0.9565 315.43 -1.31011 294.943 0.750446ZM346.362 22.3862C367.457 25.9922 384.799 31.7618 402.649 41.1373C439.97 60.6095 470.498 92.3421 488.245 129.947C492.607 139.322 499.3 157.146 499.3 159.619C499.3 160.032 497.779 160.443 495.953 160.443C492.81 160.443 492.607 160.237 490.274 152.922C481.248 124.486 459.342 91.93 435.812 71.9426C367.863 14.1441 273.342 11.2593 203.161 64.7306C174.358 86.6756 152.959 116.244 140.788 150.656C137.543 159.826 137.442 159.929 133.79 160.237L130.139 160.546L133.79 149.935C144.034 119.851 162.999 91.0028 186.427 69.676C230.138 30.0103 289.568 12.4956 346.362 22.3862ZM291.698 37.8404C289.264 38.9738 279.021 42.8888 268.879 46.7008C249.711 53.8097 241.091 57.7248 234.093 62.5671C231.861 64.1125 228.21 65.6579 225.98 66.07C223.748 66.4822 218.474 68.2336 214.418 69.882C210.259 71.4274 206.608 72.6638 206.406 72.4577C205.493 71.5305 226.993 58.0339 237.642 52.8825C255.492 44.2281 282.469 35.8829 292.915 35.8829C295.856 35.8829 295.856 35.9859 291.698 37.8404ZM325.875 41.9616C330.642 43.1979 337.539 45.5675 341.189 47.2159C347.985 50.4098 347.985 50.4098 347.477 54.1188C347.275 56.2823 346.058 66.4822 344.74 76.8879L342.508 95.742L333.989 98.3176C322.833 101.512 304.578 108.929 292.306 115.214L282.469 120.16L272.936 116.244C267.764 114.081 254.883 109.341 244.437 105.735C233.991 102.13 225.473 98.7298 225.473 98.1116C225.473 94.5057 232.774 68.2336 234.194 66.5851C236.933 63.4943 253.16 55.8703 271.11 49.2765C280.34 45.8766 290.177 42.0645 292.915 40.9312C297.174 39.1798 299.406 38.8707 307.621 39.3858C312.895 39.5919 321.109 40.8282 325.875 41.9616ZM395.854 55.4582C400.621 58.6521 408.125 64.5246 412.588 68.5427C417.05 72.6638 423.743 78.6393 427.497 81.8333C433.581 87.1907 434.494 88.5301 436.32 94.6087C439.362 104.396 440.478 111.299 440.478 119.644V127.062L416.442 132.626L392.304 138.293L380.134 125.826C373.441 119.026 362.791 109.547 356.606 104.809C347.376 97.9056 345.247 95.8451 345.653 94.0935C345.957 92.3421 349.608 62.0519 350.52 52.7794C350.825 49.7917 354.171 49.2766 371.514 49.4826L387.233 49.6886L395.854 55.4582ZM268.575 117.687C274.153 119.851 279.021 121.808 279.325 122.22C279.731 122.529 280.34 131.286 280.745 141.59L281.454 160.443H228.008H174.561L175.169 157.558C175.473 156.013 175.981 152.407 176.386 149.625C176.995 144.68 177.501 143.959 191.396 130.05C199.205 122.014 209.753 112.432 214.722 108.724L223.647 101.924L241.091 107.899C250.624 111.196 262.997 115.523 268.575 117.687ZM340.987 102.13C340.785 102.336 336.119 104.396 330.743 106.766C325.267 109.135 313.807 114.39 305.288 118.614L289.67 126.135L289.061 134.171C288.655 138.602 288.25 144.99 288.25 148.492L288.148 154.776L287.337 150.141C286.931 147.565 286.221 140.765 285.816 134.893L285.106 124.383L298.087 117.995C313.098 110.578 344.131 99.1421 340.987 102.13ZM162.999 129.947C164.216 134.274 165.738 136.541 169.287 139.734L173.952 143.856L172.735 149.832C170.504 161.783 172.329 160.443 158.537 160.443C151.234 160.443 146.366 160.032 146.366 159.413C146.366 156.838 160.058 124.383 161.173 124.383C161.274 124.383 162.187 126.857 162.999 129.947ZM451.735 140.559C457.009 146.122 462.891 152.819 464.615 155.498L467.962 160.443H427.8C405.793 160.443 387.741 160.135 387.741 159.619C387.741 159.207 388.856 154.983 390.174 150.141L392.507 141.383L414.718 136.025C426.888 133.141 438.145 130.668 439.565 130.668C441.593 130.565 444.331 132.729 451.735 140.559Z" fill="#FFD700"/>
<path d="M290.751 283.533C200.691 285.036 100.176 297.064 17.3521 316.108C-6.67096 321.62 -6.9725 322.022 15.6433 318.915C46.6018 314.604 115.957 306.886 122.691 306.886C126.41 306.986 126.41 307.088 132.341 317.812C164.506 376.948 224.01 416.34 293.264 424.258C305.829 425.761 336.084 424.859 349.051 422.654C412.978 411.929 467.457 373.64 498.214 317.612C503.743 307.488 504.245 306.886 507.26 306.886C511.18 306.886 575.51 314.104 601.845 317.411C612.399 318.814 623.254 320.117 625.968 320.418C630.492 320.819 630.19 320.718 623.455 318.915C599.332 312.599 549.979 303.078 517.412 298.367C441.122 287.341 363.927 282.23 290.751 283.533ZM355.081 303.378C357.896 307.588 359.906 311.397 359.605 311.898C358.398 313.802 319.801 348.784 315.881 351.489C312.765 353.695 310.453 354.296 304.121 354.697C291.455 355.599 261.904 352.492 249.039 348.884C245.821 347.981 242.002 344.774 230.242 332.947C222.1 324.728 214.763 316.91 213.858 315.607C212.351 313.201 212.451 312.801 216.17 305.684L220.09 298.367L235.569 297.665C244.113 297.264 253.562 296.764 256.577 296.562C259.593 296.362 281.906 296.162 306.03 296.062L349.955 295.861L355.081 303.378ZM467.256 303.078C467.557 303.478 464.944 308.19 461.325 313.602C454.39 324.026 444.238 335.854 443.032 334.751C442.73 334.45 441.826 331.243 441.022 327.735C440.318 324.327 437.604 316.709 435.091 310.996C432.578 305.283 430.467 300.372 430.467 299.97C430.467 299.169 466.351 302.175 467.256 303.078ZM431.171 309.593C435.694 319.315 438.006 326.331 439.011 332.546C439.615 336.154 439.212 337.157 435.191 342.569C430.869 348.382 420.215 357.303 409.158 364.419C400.414 369.932 387.748 372.539 355.283 375.545L337.893 377.149L332.666 373.14C327.54 369.231 317.388 357.905 317.388 356.1C317.388 355.599 324.424 348.784 332.968 340.965C341.512 333.047 351.765 323.525 355.584 319.817C360.911 314.604 363.122 313.101 364.731 313.502C369.756 314.805 402.424 308.791 416.496 303.88C421.119 302.376 425.441 300.973 426.044 300.973C426.647 300.873 428.959 304.782 431.171 309.593ZM172.748 304.381C177.472 307.588 190.538 311.698 200.591 313.101L208.431 314.204L215.467 322.623C219.387 327.234 227.126 335.152 232.554 340.364C238.082 345.576 242.504 350.587 242.504 351.489C242.504 353.594 239.69 359.007 238.584 359.007C236.474 359.007 216.17 351.489 208.833 347.981C198.077 342.87 185.915 334.55 180.99 328.938C178.779 326.431 173.753 319.717 169.933 313.902C162.998 303.68 162.898 303.378 165.209 302.777C168.828 301.775 168.828 301.675 172.748 304.381ZM158.575 311.597C185.111 355.098 227.83 384.967 278.992 395.692C295.879 399.2 323.319 400.102 340.004 397.696C376.29 392.384 408.354 377.951 435.393 354.697C447.454 344.473 458.008 332.245 468.361 316.609C476 305.183 477.206 303.88 479.82 303.88C481.428 303.88 482.734 304.381 482.734 304.983C482.734 306.686 474.593 319.917 467.859 329.238C460.823 339.161 445.545 355.198 435.995 363.016C413.782 381.158 383.225 396.093 357.092 401.606C305.829 412.53 254.265 403.209 211.245 375.245C193.353 363.618 178.678 350.086 165.712 333.649C159.38 325.53 147.016 306.386 147.016 304.681C147.016 304.281 148.523 303.88 150.433 303.88C153.65 303.88 154.253 304.381 158.575 311.597ZM225.719 358.506C238.082 362.716 238.886 363.116 241.097 366.926C243.51 370.834 249.34 375.645 257.683 380.557C263.312 383.864 259.894 383.063 247.531 377.951C231.85 371.436 207.928 356.802 201.696 349.886C200.088 348.082 200.892 348.282 206.219 350.989C209.737 352.692 218.482 356.1 225.719 358.506ZM383.326 377.65C374.48 381.659 356.388 386.771 343.02 388.876C330.757 390.88 308.845 392.785 309.85 391.782C310.151 391.482 313.971 390.279 318.393 389.077C322.816 387.874 329.651 385.368 333.47 383.564C339.803 380.557 342.015 380.156 355.182 379.053C363.324 378.452 373.676 377.35 378.3 376.548C389.557 374.844 389.557 374.844 383.326 377.65Z" fill="#FFD700"/>
<path d="M494.81 197.21H484.57V195.551L487.514 194.102L486.252 191.158H479.031L478.017 193.542L481.479 195.341L480.49 197.21H472.229V195.551L475.123 193.519L481.059 179.592L486.351 178.399L493.226 194.243L495.799 195.341L494.81 197.21ZM482.592 182.675L479.946 188.938H485.288L482.592 182.675Z" fill="#FFD700"/>
<path d="M471.069 182.535L465.133 196.462L459.841 197.654L452.965 181.81L450.394 180.712L451.383 178.843H461.621V180.502L458.678 181.951L463.575 193.378L468.175 182.512L464.712 180.712L465.702 178.843H473.962V180.502L471.069 182.535Z" fill="#FFD700"/>
<path d="M447.17 197.21H437.672V195.551L439.997 193.635V181.437L437.178 180.736L438.168 178.866H447.664V180.525L445.314 182.465V194.64L448.159 195.34L447.17 197.21Z" fill="#FFD700"/>
<path d="M433.973 185.2L432.242 185.9L428.656 181.063H426.8V194.71L429.645 195.341L428.656 197.21H419.159V195.551L421.483 193.822V181.063H419.703L416.117 185.9L414.386 185.2V178.422L416.438 178.844H431.92L433.973 178.422V185.2Z" fill="#FFD700"/>
<path d="M410.921 197.21H405.085L400.732 189.265L399.693 188.704L400.435 187.302H401.449C402.191 187.302 402.776 187.052 403.205 186.554C403.634 186.04 403.848 185.323 403.848 184.405C403.848 183.392 403.568 182.582 403.007 181.974C402.463 181.351 401.656 181.039 400.583 181.039C399.94 181.039 399.338 181.219 398.779 181.577V194.616L401.622 195.317L400.633 197.186H391.136V195.527L393.461 193.612V181.413L390.642 180.712L391.631 178.843H396.478C397.863 178.843 399.231 178.796 400.583 178.703C401.573 178.64 402.298 178.609 402.76 178.609C404.112 178.609 405.307 178.827 406.346 179.263C407.401 179.685 408.217 180.268 408.794 181.016C409.371 181.764 409.66 182.605 409.66 183.539C409.66 184.599 409.165 185.581 408.176 186.484C407.203 187.387 405.983 188.097 404.516 188.61L406.717 189.171L409.561 194.336L411.911 195.34L410.921 197.21Z" fill="#FFD700"/>
<path d="M376.952 178.375C378.931 178.375 380.678 178.773 382.195 179.568C383.712 180.361 384.882 181.46 385.706 182.862C386.531 184.264 386.943 185.853 386.943 187.629C386.943 189.452 386.317 191.134 385.064 192.676C383.827 194.219 382.285 195.442 380.439 196.345C378.592 197.233 376.845 197.677 375.196 197.677C373.218 197.677 371.47 197.287 369.953 196.508C368.452 195.715 367.282 194.616 366.441 193.214C365.617 191.812 365.205 190.223 365.205 188.447C365.205 186.624 365.822 184.942 367.059 183.4C368.312 181.842 369.862 180.619 371.708 179.731C373.555 178.827 375.303 178.375 376.952 178.375ZM375.518 181.507C374.693 181.507 373.934 181.764 373.242 182.278C372.566 182.776 372.022 183.47 371.61 184.358C371.214 185.246 371.017 186.235 371.017 187.325C371.017 188.65 371.222 189.857 371.635 190.947C372.047 192.038 372.673 192.91 373.514 193.564C374.372 194.219 375.411 194.546 376.631 194.546C377.455 194.546 378.205 194.297 378.881 193.798C379.573 193.284 380.117 192.583 380.513 191.695C380.925 190.807 381.132 189.818 381.132 188.727C381.132 187.387 380.925 186.172 380.513 185.082C380.101 183.991 379.475 183.127 378.634 182.488C377.793 181.834 376.754 181.507 375.518 181.507Z" fill="#FFD700"/>
<path d="M353.536 188.027C354.278 188.027 354.863 187.738 355.292 187.161C355.72 186.586 355.935 185.791 355.935 184.778C355.935 183.688 355.655 182.8 355.094 182.114C354.55 181.414 353.743 181.063 352.67 181.063C352.027 181.063 351.425 181.242 350.865 181.6V194.522L355.44 195.34L354.451 197.21H343.223V195.551L345.547 193.822V181.507L342.729 180.712L343.718 178.843H348.565C349.95 178.843 351.318 178.796 352.67 178.703C353.66 178.64 354.385 178.609 354.847 178.609C356.199 178.609 357.394 178.851 358.432 179.334C359.488 179.816 360.304 180.478 360.882 181.32C361.458 182.161 361.747 183.096 361.747 184.124C361.747 185.246 361.269 186.313 360.313 187.325C359.373 188.322 358.177 189.109 356.727 189.686C355.292 190.246 353.907 190.495 352.571 190.434L351.533 189.873L352.522 188.003H353.536V188.027Z" fill="#FFD700"/>
<path d="M336.959 197.21H320.86V195.551L323.185 193.822V181.437L320.365 180.713L321.354 178.844H336.712L338.765 178.422V184.732L337.034 185.434L333.918 181.063H328.502V186.718H330.901L332.706 184.312H334.462V190.948L332.483 191.883L330.826 188.939H328.502V194.99H333.695L337.281 190.154L339.012 190.854V197.631L336.959 197.21Z" fill="#FFD700"/>
<path d="M306.776 178.609C308.722 178.609 310.437 178.999 311.921 179.778C313.421 180.541 314.583 181.608 315.408 182.979C316.232 184.35 316.644 185.9 316.644 187.629C316.644 189.405 316.026 191.049 314.79 192.559C313.57 194.056 312.045 195.247 310.214 196.135C308.401 197.008 306.669 197.444 305.021 197.444C304.295 197.444 303.562 197.404 302.819 197.327C301.633 197.249 300.701 197.21 300.025 197.21H295.648V195.551L297.973 193.822V181.507L295.153 180.712L296.142 178.843H300C301.501 178.843 302.976 178.796 304.428 178.703C305.483 178.64 306.265 178.609 306.776 178.609ZM305.713 195.013C306.653 195.013 307.51 194.74 308.285 194.195C309.077 193.65 309.695 192.902 310.14 191.952C310.601 190.987 310.833 189.911 310.833 188.727C310.833 187.31 310.61 186.025 310.165 184.871C309.736 183.703 309.069 182.776 308.161 182.091C307.272 181.39 306.167 181.039 304.847 181.039C304.303 181.039 303.792 181.172 303.315 181.437V194.639C304.023 194.889 304.823 195.013 305.713 195.013Z" fill="#FFD700"/>
<path d="M283.043 197.21H272.805V195.551L275.748 194.102L274.487 191.158H267.265L266.251 193.542L269.714 195.341L268.724 197.21H260.464V195.551L263.358 193.519L269.293 179.592L274.585 178.399L281.461 194.243L284.033 195.341L283.043 197.21ZM270.826 182.675L268.18 188.938H273.522L270.826 182.675Z" fill="#FFD700"/>
<path d="M257.004 197.21H247.507V195.551L249.832 193.635V189.171H242.289V194.64L245.133 195.34L244.143 197.21H234.647V195.551L236.972 193.635V181.437L234.152 180.736L235.141 178.866H244.638V180.525L242.289 182.465V186.975H249.832V181.437L247.013 180.736L248.001 178.866H257.498V180.525L255.149 182.465V194.64L257.993 195.34L257.004 197.21Z" fill="#FFD700"/>
<path d="M223.6 178.375C224.621 178.375 225.809 178.492 227.161 178.726C228.513 178.96 229.502 179.209 230.128 179.473V184.708H226.963C226.353 183.602 225.636 182.792 224.811 182.278C224.003 181.764 223.121 181.507 222.165 181.507C221.357 181.507 220.615 181.764 219.939 182.278C219.279 182.776 218.752 183.47 218.356 184.358C217.977 185.246 217.787 186.235 217.787 187.325C217.787 188.556 217.986 189.685 218.381 190.714C218.777 191.726 219.378 192.537 220.187 193.144C220.995 193.751 221.991 194.056 223.179 194.056C224.745 194.056 226.954 193.401 229.806 192.093L230.944 193.822L226.394 197.163C225.602 197.381 224.844 197.521 224.119 197.584C223.41 197.646 222.635 197.677 221.794 197.677C219.865 197.677 218.158 197.28 216.674 196.486C215.191 195.691 214.036 194.601 213.212 193.214C212.387 191.812 211.975 190.223 211.975 188.447C211.975 186.624 212.586 184.942 213.806 183.4C215.042 181.842 216.567 180.619 218.381 179.731C220.211 178.827 221.951 178.375 223.6 178.375Z" fill="#FFD700"/>
<path d="M206.162 182.418V197.186H203.566L192.066 185.62V194.079L196.146 195.341L195.158 197.21H187.144V195.551L189.469 193.635V182.231L186.65 180.712L187.638 178.843H192.363L203.566 190.083V181.951L199.51 180.712L200.499 178.843H208.512V180.478L206.162 182.418Z" fill="#FFD700"/>
<path d="M183.425 197.21H173.187V195.551L176.129 194.102L174.868 191.158H167.646L166.633 193.542L170.095 195.341L169.105 197.21H160.846V195.551L163.739 193.519L169.674 179.592L174.967 178.399L181.843 194.243L184.415 195.341L183.425 197.21ZM171.208 182.675L168.561 188.938H173.903L171.208 182.675Z" fill="#FFD700"/>
<path d="M150.788 178.375C151.811 178.375 152.997 178.492 154.349 178.726C155.701 178.96 156.691 179.209 157.318 179.473V184.708H154.152C153.542 183.602 152.824 182.792 152 182.278C151.192 181.764 150.31 181.507 149.354 181.507C148.546 181.507 147.804 181.764 147.128 182.278C146.469 182.776 145.941 183.47 145.545 184.358C145.166 185.246 144.977 186.235 144.977 187.325C144.977 188.556 145.174 189.685 145.57 190.714C145.965 191.726 146.567 192.537 147.375 193.144C148.183 193.751 149.181 194.056 150.368 194.056C151.934 194.056 154.144 193.401 156.996 192.093L158.134 193.822L153.583 197.163C152.792 197.381 152.033 197.521 151.307 197.584C150.599 197.646 149.824 197.677 148.983 197.677C147.053 197.677 145.347 197.28 143.864 196.486C142.38 195.691 141.226 194.601 140.401 193.214C139.577 191.812 139.165 190.223 139.165 188.447C139.165 186.624 139.775 184.942 140.995 183.4C142.232 181.842 143.757 180.619 145.57 179.731C147.4 178.827 149.139 178.375 150.788 178.375Z" fill="#FFD700"/>
</g>
<path fill-rule="evenodd" clip-rule="evenodd" d="M121.058 204.592C121.245 205.006 121.245 208.152 121.058 211.629L120.684 218.087H106.307C98.2792 218.087 90.9976 218.5 90.064 218.914C89.0372 219.411 87.8235 221.15 87.3568 222.888C85.3964 229.759 80.4486 257.741 81.0088 258.982C81.4755 260.059 82.9692 260.308 88.5704 260.308L89.0913 260.308C92.7266 260.31 94.4915 260.31 95.4644 259.433C96.3823 258.605 96.5951 256.995 97.0087 253.867V253.867L97.0657 253.436C97.7191 248.965 97.6258 248.717 95.7587 248.717C93.5182 248.717 93.4248 248.22 94.8251 240.356L95.9454 234.643H108.735H121.524L117.697 254.678L113.87 274.795H90.9043C70.4598 274.795 67.7525 274.63 65.512 273.304C61.3111 270.904 59.2573 267.095 59.2573 261.88C59.2573 254.181 66.5389 218.169 68.8728 213.947C71.2066 209.891 76.9012 205.834 81.7556 204.84C85.8632 204.012 120.684 203.847 121.058 204.592ZM184.165 205.916C188.739 208.152 190.886 211.794 190.886 217.507C190.886 222.888 185.098 254.926 182.858 261.714C181.271 266.93 176.884 271.566 171.749 273.636C168.575 274.96 165.494 275.209 152.145 275.209C137.488 275.209 135.901 275.043 132.074 273.387C127.125 271.152 124.605 267.344 124.605 261.963C124.605 259.976 126.286 249.379 128.433 238.369C132.54 216.761 134.594 211.298 139.728 208.069C145.423 204.426 148.41 204.012 165.214 204.261C178.377 204.426 181.644 204.675 184.165 205.916ZM249.139 204.924C251.193 205.42 253.994 206.91 255.394 208.235C259.688 212.374 259.782 216.017 255.86 237.955C251.753 261.3 250.54 265.191 246.618 269.166C241.298 274.463 237.657 275.375 220.293 275.375C207.13 275.375 204.516 275.126 200.875 273.718C193.594 270.821 191.26 265.771 192.847 256.168C195.274 241.267 200.221 218.003 201.622 215.106C204.049 209.891 208.437 206.579 215.159 204.757C218.799 203.765 245.031 203.93 249.139 204.924ZM291.241 206.248C290.495 209.89 281.44 259.396 281.44 259.894C281.44 260.141 287.321 260.308 294.509 260.308C304.404 260.308 307.579 260.555 307.485 261.3C307.485 261.88 306.925 265.191 306.272 268.586L305.151 274.795L281.627 275.043C263.609 275.209 258.101 274.96 258.101 274.216C258.101 273.636 261.088 257.823 264.636 239.114C268.277 220.322 271.171 204.757 271.171 204.51C271.171 204.261 275.745 204.012 281.44 204.012H291.709L291.241 206.248ZM388.89 204.344C389.077 204.51 389.17 207.738 388.983 211.38L388.61 218.087H375.167C367.605 218.087 360.79 218.5 359.764 218.914C358.456 219.576 357.99 220.652 357.99 223.053C357.99 226.282 357.99 226.282 368.072 231.663C373.58 234.561 378.807 237.706 379.648 238.534C384.129 242.922 385.249 251.035 382.729 259.894C380.862 266.185 377.688 270.241 372.647 272.808C368.912 274.712 367.792 274.795 349.868 275.043L330.918 275.375V267.841V260.308H345.294C359.203 260.308 359.764 260.224 361.164 258.486C363.311 255.837 363.031 252.608 360.603 250.622C359.39 249.71 354.816 247.061 350.335 244.66C345.854 242.342 341.186 239.279 339.879 237.955C336.892 234.727 336.051 229.511 337.359 222.474C339.319 212.374 343.707 206.91 351.455 205.006C354.536 204.178 388.05 203.598 388.89 204.344ZM451.61 207.425V207.425C451.394 208.44 451.141 209.626 450.877 210.884C450.131 214.443 449.477 217.589 449.477 217.755C449.477 217.92 445.462 218.087 440.608 218.087C435.754 218.087 431.739 218.169 431.646 218.252C431.646 218.343 430.916 222.218 429.78 228.253L429.779 228.259C428.843 233.227 427.632 239.659 426.325 246.647L421.004 274.795L410.548 275.043C404.76 275.126 399.999 275.126 399.999 274.96C399.999 274.381 410.268 221.646 410.735 219.907C411.202 218.087 411.109 218.087 401.866 218.087C393.277 218.087 392.437 217.92 392.904 216.596C393.184 215.851 393.838 212.705 394.492 209.56L395.518 204.012H423.898C439.488 204.012 452.278 204.096 452.278 204.178C452.278 204.285 452.005 205.568 451.61 207.424L451.61 207.425ZM495.873 221.398C496.994 230.752 499.048 246.068 500.354 255.588C501.661 265.026 502.689 273.304 502.689 273.967C502.689 274.96 500.822 275.209 491.953 275.209H481.217V271.98C481.217 270.241 480.937 267.095 480.657 264.944L480.003 261.135H470.855H461.706L458.719 268.172L455.732 275.209H444.716H433.7L442.195 257.989C453.771 234.313 467.214 207.242 468.335 205.42C469.081 204.096 470.482 204.012 481.497 204.178L493.82 204.426L495.873 221.398ZM567.85 205.916C574.758 209.311 576.064 215.355 572.704 229.511C570.744 238.369 568.223 242.011 562.341 244.66C560.194 245.572 558.7 246.813 558.981 247.31C560.102 250.042 568.97 274.298 568.97 274.712C568.97 274.96 564.022 275.209 557.954 275.209H546.938L542.83 262.956C537.976 248.221 537.697 247.724 535.082 248.055C533.215 248.304 532.841 249.38 530.601 261.549L528.268 274.795L517.812 275.043C510.53 275.209 507.357 274.96 507.357 274.298C507.357 273.801 509.036 264.777 511.09 254.264C512.364 247.977 513.901 240.087 515.272 233.049L515.273 233.044C516.212 228.222 517.073 223.801 517.718 220.57C519.212 212.623 520.706 205.585 520.893 205.006C521.266 204.096 525.653 203.93 543.017 204.178C561.781 204.426 565.143 204.592 567.85 205.916ZM316.727 224.875L318.314 230.091L325.783 230.504L333.157 230.918L326.903 234.561C323.449 236.547 320.648 238.534 320.648 239.114C320.742 239.61 321.302 242.342 321.955 245.158C322.609 248.055 322.983 250.373 322.796 250.373C322.609 250.373 319.995 248.883 317.195 247.061C314.301 245.24 311.593 243.75 311.126 243.75C310.66 243.75 307.766 245.24 304.685 247.145C301.604 248.965 298.897 250.373 298.617 250.208C298.43 249.959 299.27 247.475 300.578 244.578C301.884 241.681 302.911 238.865 302.911 238.451C302.911 237.955 300.578 236.051 297.776 234.313C294.976 232.491 292.643 230.836 292.643 230.587C292.643 230.338 296.003 230.173 300.017 230.338L307.485 230.587L310.846 224.129C312.807 220.57 314.487 218.087 314.767 218.666C314.954 219.162 315.887 221.978 316.727 224.875ZM223.014 219.079L223.014 219.08C222.803 219.27 222.62 219.436 222.453 219.617C221.307 220.859 220.943 222.822 218.084 238.224L218.084 238.225L217.871 239.369C214.512 257.958 214.418 259.564 217.031 260.831C220.11 262.267 228.135 261.338 230.002 259.31C230.935 258.212 232.801 250.776 235.134 238.862C238.027 223.652 238.493 220.018 237.467 218.92C235.787 217.146 225.056 217.146 223.097 219.005L223.014 219.079ZM153.839 219.617C154.006 219.436 154.19 219.27 154.401 219.079L154.483 219.005C156.442 217.146 167.173 217.146 168.853 218.92C169.879 220.018 169.413 223.652 166.52 238.862C164.188 250.776 162.321 258.212 161.388 259.31C159.521 261.338 151.496 262.267 148.417 260.831C145.805 259.564 145.898 257.958 149.258 239.369L149.47 238.225L149.47 238.225C152.329 222.822 152.693 220.859 153.839 219.617ZM473.047 233.674L467.822 246.349L473.42 246.603C476.499 246.772 479.113 246.687 479.299 246.518C479.579 246.349 479.392 240.518 479.019 233.59L478.272 221L473.047 233.674ZM533.97 231.712C534.25 229.768 534.996 225.797 535.556 222.84L536.489 217.6H542.834C552.539 217.6 553.38 219.122 550.207 230.444C549.087 234.5 547.22 235.345 539.569 235.345H533.317L533.97 231.712Z" fill="#FFD700"/>
</g>
<defs>
<clipPath id="clip0_735_103">
<rect width="630" height="425" fill="white"/>
</clipPath>
</defs>
</svg>
